<mxfile host="app.diagrams.net" agent="Mozilla/5.0 (X11; Linux x86_64) AppleWebKit/537.36 (KHTML, like Gecko) Chrome/128.0.0.0 Safari/537.36" version="24.7.12">
  <diagram name="Page-1" id="iPtElRWPh3RuLjCkUGT1">
    <mxGraphModel grid="1" page="1" gridSize="10" guides="1" tooltips="1" connect="1" arrows="1" fold="1" pageScale="1" pageWidth="850" pageHeight="1100" math="0" shadow="0">
      <root>
        <mxCell id="0" />
        <mxCell id="1" parent="0" />
        <mxCell id="FS0p3moliFxc1-Q8TRuR-4" value="id" style="ellipse;whiteSpace=wrap;html=1;" vertex="1" parent="1">
          <mxGeometry x="285" y="55" width="50" height="30" as="geometry" />
        </mxCell>
        <mxCell id="FS0p3moliFxc1-Q8TRuR-10" value="email" style="ellipse;whiteSpace=wrap;html=1;" vertex="1" parent="1">
          <mxGeometry x="320" y="150" width="60" height="40" as="geometry" />
        </mxCell>
        <mxCell id="FS0p3moliFxc1-Q8TRuR-11" value="profilePicture" style="ellipse;whiteSpace=wrap;html=1;" vertex="1" parent="1">
          <mxGeometry x="190" y="50" width="80" height="40" as="geometry" />
        </mxCell>
        <mxCell id="FS0p3moliFxc1-Q8TRuR-12" value="friendIDs" style="ellipse;whiteSpace=wrap;html=1;" vertex="1" parent="1">
          <mxGeometry x="90" y="145" width="90" height="50" as="geometry" />
        </mxCell>
        <mxCell id="FS0p3moliFxc1-Q8TRuR-13" value="user" style="rounded=1;whiteSpace=wrap;html=1;" vertex="1" parent="1">
          <mxGeometry x="220" y="150" width="80" height="40" as="geometry" />
        </mxCell>
        <mxCell id="FS0p3moliFxc1-Q8TRuR-16" value="" style="group" connectable="0" vertex="1" parent="1">
          <mxGeometry x="165" y="120" width="50" height="20" as="geometry" />
        </mxCell>
        <mxCell id="FS0p3moliFxc1-Q8TRuR-15" value="name" style="ellipse;whiteSpace=wrap;html=1;" vertex="1" parent="FS0p3moliFxc1-Q8TRuR-16">
          <mxGeometry width="50" height="20" as="geometry" />
        </mxCell>
        <mxCell id="FS0p3moliFxc1-Q8TRuR-25" value="" style="endArrow=none;html=1;rounded=0;entryX=1;entryY=0.5;entryDx=0;entryDy=0;exitX=0;exitY=0.5;exitDx=0;exitDy=0;" edge="1" parent="1" source="FS0p3moliFxc1-Q8TRuR-13" target="FS0p3moliFxc1-Q8TRuR-12">
          <mxGeometry width="50" height="50" relative="1" as="geometry">
            <mxPoint x="260" y="400" as="sourcePoint" />
            <mxPoint x="310" y="350" as="targetPoint" />
          </mxGeometry>
        </mxCell>
        <mxCell id="FS0p3moliFxc1-Q8TRuR-26" value="" style="endArrow=none;html=1;rounded=0;entryX=1;entryY=0.5;entryDx=0;entryDy=0;" edge="1" parent="1" source="FS0p3moliFxc1-Q8TRuR-10" target="FS0p3moliFxc1-Q8TRuR-13">
          <mxGeometry width="50" height="50" relative="1" as="geometry">
            <mxPoint x="260" y="400" as="sourcePoint" />
            <mxPoint x="310" y="350" as="targetPoint" />
          </mxGeometry>
        </mxCell>
        <mxCell id="FS0p3moliFxc1-Q8TRuR-27" value="" style="endArrow=none;html=1;rounded=0;entryX=1;entryY=1;entryDx=0;entryDy=0;exitX=0.25;exitY=0;exitDx=0;exitDy=0;" edge="1" parent="1" source="FS0p3moliFxc1-Q8TRuR-13" target="FS0p3moliFxc1-Q8TRuR-15">
          <mxGeometry width="50" height="50" relative="1" as="geometry">
            <mxPoint x="260" y="400" as="sourcePoint" />
            <mxPoint x="310" y="350" as="targetPoint" />
          </mxGeometry>
        </mxCell>
        <mxCell id="FS0p3moliFxc1-Q8TRuR-28" value="" style="endArrow=none;html=1;rounded=0;entryX=0.75;entryY=0;entryDx=0;entryDy=0;exitX=0;exitY=1;exitDx=0;exitDy=0;strokeWidth=1;" edge="1" parent="1" source="FS0p3moliFxc1-Q8TRuR-19" target="FS0p3moliFxc1-Q8TRuR-13">
          <mxGeometry width="50" height="50" relative="1" as="geometry">
            <mxPoint x="260" y="400" as="sourcePoint" />
            <mxPoint x="310" y="350" as="targetPoint" />
          </mxGeometry>
        </mxCell>
        <mxCell id="FS0p3moliFxc1-Q8TRuR-29" value="" style="endArrow=none;html=1;rounded=0;entryX=0.5;entryY=1;entryDx=0;entryDy=0;exitX=0.5;exitY=0;exitDx=0;exitDy=0;" edge="1" parent="1" source="FS0p3moliFxc1-Q8TRuR-13" target="FS0p3moliFxc1-Q8TRuR-11">
          <mxGeometry width="50" height="50" relative="1" as="geometry">
            <mxPoint x="260" y="400" as="sourcePoint" />
            <mxPoint x="310" y="350" as="targetPoint" />
          </mxGeometry>
        </mxCell>
        <mxCell id="FS0p3moliFxc1-Q8TRuR-30" value="" style="endArrow=none;html=1;rounded=0;entryX=0.5;entryY=1;entryDx=0;entryDy=0;exitX=0.5;exitY=0;exitDx=0;exitDy=0;" edge="1" parent="1" source="FS0p3moliFxc1-Q8TRuR-13" target="FS0p3moliFxc1-Q8TRuR-4">
          <mxGeometry width="50" height="50" relative="1" as="geometry">
            <mxPoint x="260" y="400" as="sourcePoint" />
            <mxPoint x="310" y="350" as="targetPoint" />
          </mxGeometry>
        </mxCell>
        <mxCell id="FS0p3moliFxc1-Q8TRuR-40" style="edgeStyle=none;shape=link;rounded=0;orthogonalLoop=1;jettySize=auto;html=1;exitX=0.5;exitY=1;exitDx=0;exitDy=0;entryX=0.5;entryY=0;entryDx=0;entryDy=0;" edge="1" parent="1" source="FS0p3moliFxc1-Q8TRuR-31" target="FS0p3moliFxc1-Q8TRuR-39">
          <mxGeometry relative="1" as="geometry" />
        </mxCell>
        <mxCell id="FS0p3moliFxc1-Q8TRuR-31" value="Photo" style="rounded=1;whiteSpace=wrap;html=1;" vertex="1" parent="1">
          <mxGeometry x="140" y="320" width="80" height="40" as="geometry" />
        </mxCell>
        <mxCell id="FS0p3moliFxc1-Q8TRuR-33" value="id" style="ellipse;whiteSpace=wrap;html=1;" vertex="1" parent="1">
          <mxGeometry y="320" width="60" height="40" as="geometry" />
        </mxCell>
        <mxCell id="FS0p3moliFxc1-Q8TRuR-34" value="author" style="ellipse;whiteSpace=wrap;html=1;" vertex="1" parent="1">
          <mxGeometry x="40" y="260" width="60" height="40" as="geometry" />
        </mxCell>
        <mxCell id="FS0p3moliFxc1-Q8TRuR-35" value="description" style="ellipse;whiteSpace=wrap;html=1;" vertex="1" parent="1">
          <mxGeometry x="140" y="240" width="80" height="40" as="geometry" />
        </mxCell>
        <mxCell id="FS0p3moliFxc1-Q8TRuR-36" value="location" style="ellipse;whiteSpace=wrap;html=1;" vertex="1" parent="1">
          <mxGeometry x="300" y="322.5" width="70" height="35" as="geometry" />
        </mxCell>
        <mxCell id="FS0p3moliFxc1-Q8TRuR-37" value="likes" style="ellipse;whiteSpace=wrap;html=1;" vertex="1" parent="1">
          <mxGeometry x="250" y="260" width="70" height="40" as="geometry" />
        </mxCell>
        <mxCell id="FS0p3moliFxc1-Q8TRuR-45" style="edgeStyle=none;shape=link;rounded=0;orthogonalLoop=1;jettySize=auto;html=1;exitX=0;exitY=1;exitDx=0;exitDy=0;entryX=0.5;entryY=0;entryDx=0;entryDy=0;" edge="1" parent="1" source="FS0p3moliFxc1-Q8TRuR-39" target="FS0p3moliFxc1-Q8TRuR-41">
          <mxGeometry relative="1" as="geometry" />
        </mxCell>
        <mxCell id="FS0p3moliFxc1-Q8TRuR-39" value="d" style="ellipse;whiteSpace=wrap;html=1;aspect=fixed;" vertex="1" parent="1">
          <mxGeometry x="165" y="410" width="30" height="30" as="geometry" />
        </mxCell>
        <mxCell id="FS0p3moliFxc1-Q8TRuR-41" value="Business" style="rounded=1;whiteSpace=wrap;html=1;" vertex="1" parent="1">
          <mxGeometry x="80" y="480" width="85" height="40" as="geometry" />
        </mxCell>
        <mxCell id="FS0p3moliFxc1-Q8TRuR-42" value="Personal" style="rounded=1;whiteSpace=wrap;html=1;" vertex="1" parent="1">
          <mxGeometry x="195" y="480" width="85" height="40" as="geometry" />
        </mxCell>
        <mxCell id="FS0p3moliFxc1-Q8TRuR-43" style="edgeStyle=none;shape=link;rounded=0;orthogonalLoop=1;jettySize=auto;html=1;exitX=0.5;exitY=0;exitDx=0;exitDy=0;" edge="1" parent="1" source="FS0p3moliFxc1-Q8TRuR-41" target="FS0p3moliFxc1-Q8TRuR-41">
          <mxGeometry relative="1" as="geometry" />
        </mxCell>
        <mxCell id="FS0p3moliFxc1-Q8TRuR-44" style="edgeStyle=none;shape=link;rounded=0;orthogonalLoop=1;jettySize=auto;html=1;exitX=1;exitY=1;exitDx=0;exitDy=0;entryX=0.5;entryY=0;entryDx=0;entryDy=0;" edge="1" parent="1" source="FS0p3moliFxc1-Q8TRuR-39" target="FS0p3moliFxc1-Q8TRuR-42">
          <mxGeometry relative="1" as="geometry" />
        </mxCell>
        <mxCell id="FS0p3moliFxc1-Q8TRuR-46" value="" style="endArrow=none;html=1;rounded=0;exitX=1;exitY=0.5;exitDx=0;exitDy=0;entryX=0;entryY=0.5;entryDx=0;entryDy=0;" edge="1" parent="1" source="FS0p3moliFxc1-Q8TRuR-31" target="FS0p3moliFxc1-Q8TRuR-36">
          <mxGeometry width="50" height="50" relative="1" as="geometry">
            <mxPoint x="220" y="320" as="sourcePoint" />
            <mxPoint x="270" y="270" as="targetPoint" />
          </mxGeometry>
        </mxCell>
        <mxCell id="FS0p3moliFxc1-Q8TRuR-47" value="" style="endArrow=none;html=1;rounded=0;entryX=0;entryY=0.5;entryDx=0;entryDy=0;exitX=1;exitY=0.5;exitDx=0;exitDy=0;" edge="1" parent="1" source="FS0p3moliFxc1-Q8TRuR-33" target="FS0p3moliFxc1-Q8TRuR-31">
          <mxGeometry width="50" height="50" relative="1" as="geometry">
            <mxPoint x="220" y="450" as="sourcePoint" />
            <mxPoint x="270" y="400" as="targetPoint" />
          </mxGeometry>
        </mxCell>
        <mxCell id="FS0p3moliFxc1-Q8TRuR-48" value="" style="endArrow=none;html=1;rounded=0;entryX=0;entryY=1;entryDx=0;entryDy=0;exitX=1;exitY=0;exitDx=0;exitDy=0;" edge="1" parent="1" source="FS0p3moliFxc1-Q8TRuR-31" target="FS0p3moliFxc1-Q8TRuR-37">
          <mxGeometry width="50" height="50" relative="1" as="geometry">
            <mxPoint x="220" y="390" as="sourcePoint" />
            <mxPoint x="270" y="340" as="targetPoint" />
          </mxGeometry>
        </mxCell>
        <mxCell id="FS0p3moliFxc1-Q8TRuR-49" value="" style="endArrow=none;html=1;rounded=0;exitX=1;exitY=1;exitDx=0;exitDy=0;" edge="1" parent="1" source="FS0p3moliFxc1-Q8TRuR-34" target="FS0p3moliFxc1-Q8TRuR-31">
          <mxGeometry width="50" height="50" relative="1" as="geometry">
            <mxPoint x="220" y="390" as="sourcePoint" />
            <mxPoint x="270" y="340" as="targetPoint" />
          </mxGeometry>
        </mxCell>
        <mxCell id="FS0p3moliFxc1-Q8TRuR-50" value="" style="endArrow=none;html=1;rounded=0;exitX=0.5;exitY=1;exitDx=0;exitDy=0;" edge="1" parent="1" source="FS0p3moliFxc1-Q8TRuR-35" target="FS0p3moliFxc1-Q8TRuR-31">
          <mxGeometry width="50" height="50" relative="1" as="geometry">
            <mxPoint x="220" y="390" as="sourcePoint" />
            <mxPoint x="270" y="340" as="targetPoint" />
          </mxGeometry>
        </mxCell>
        <mxCell id="FS0p3moliFxc1-Q8TRuR-51" value="Review" style="rounded=1;whiteSpace=wrap;html=1;" vertex="1" parent="1">
          <mxGeometry x="750" y="160" width="80" height="40" as="geometry" />
        </mxCell>
        <mxCell id="FS0p3moliFxc1-Q8TRuR-52" value="id" style="ellipse;whiteSpace=wrap;html=1;" vertex="1" parent="1">
          <mxGeometry x="627.5" y="230" width="50" height="27.5" as="geometry" />
        </mxCell>
        <mxCell id="FS0p3moliFxc1-Q8TRuR-53" value="publishDate" style="ellipse;whiteSpace=wrap;html=1;" vertex="1" parent="1">
          <mxGeometry x="870" y="160" width="90" height="40" as="geometry" />
        </mxCell>
        <mxCell id="FS0p3moliFxc1-Q8TRuR-54" value="textualContent" style="ellipse;whiteSpace=wrap;html=1;" vertex="1" parent="1">
          <mxGeometry x="620" y="160" width="92.5" height="40" as="geometry" />
        </mxCell>
        <mxCell id="FS0p3moliFxc1-Q8TRuR-55" value="author" style="ellipse;whiteSpace=wrap;html=1;" vertex="1" parent="1">
          <mxGeometry x="620" y="100" width="65" height="37.5" as="geometry" />
        </mxCell>
        <mxCell id="FS0p3moliFxc1-Q8TRuR-56" value="business" style="ellipse;whiteSpace=wrap;html=1;" vertex="1" parent="1">
          <mxGeometry x="882.5" y="223.75" width="65" height="40" as="geometry" />
        </mxCell>
        <mxCell id="FS0p3moliFxc1-Q8TRuR-57" value="stars" style="ellipse;whiteSpace=wrap;html=1;" vertex="1" parent="1">
          <mxGeometry x="885" y="100" width="70" height="40" as="geometry" />
        </mxCell>
        <mxCell id="FS0p3moliFxc1-Q8TRuR-69" value="" style="endArrow=none;html=1;rounded=0;exitX=1.016;exitY=0.531;exitDx=0;exitDy=0;exitPerimeter=0;entryX=0;entryY=0.5;entryDx=0;entryDy=0;" edge="1" parent="1" source="FS0p3moliFxc1-Q8TRuR-54" target="FS0p3moliFxc1-Q8TRuR-51">
          <mxGeometry width="50" height="50" relative="1" as="geometry">
            <mxPoint x="750" y="200" as="sourcePoint" />
            <mxPoint x="800" y="150" as="targetPoint" />
          </mxGeometry>
        </mxCell>
        <mxCell id="FS0p3moliFxc1-Q8TRuR-70" value="" style="endArrow=none;html=1;rounded=0;entryX=0.983;entryY=0.59;entryDx=0;entryDy=0;entryPerimeter=0;exitX=0;exitY=0;exitDx=0;exitDy=0;" edge="1" parent="1" source="FS0p3moliFxc1-Q8TRuR-51" target="FS0p3moliFxc1-Q8TRuR-55">
          <mxGeometry width="50" height="50" relative="1" as="geometry">
            <mxPoint x="750" y="200" as="sourcePoint" />
            <mxPoint x="800" y="150" as="targetPoint" />
          </mxGeometry>
        </mxCell>
        <mxCell id="FS0p3moliFxc1-Q8TRuR-71" value="" style="endArrow=none;html=1;rounded=0;exitX=1;exitY=0.5;exitDx=0;exitDy=0;entryX=0;entryY=1;entryDx=0;entryDy=0;" edge="1" parent="1" source="FS0p3moliFxc1-Q8TRuR-52" target="FS0p3moliFxc1-Q8TRuR-51">
          <mxGeometry width="50" height="50" relative="1" as="geometry">
            <mxPoint x="750" y="200" as="sourcePoint" />
            <mxPoint x="800" y="150" as="targetPoint" />
          </mxGeometry>
        </mxCell>
        <mxCell id="FS0p3moliFxc1-Q8TRuR-72" value="" style="endArrow=none;html=1;rounded=0;exitX=1;exitY=1;exitDx=0;exitDy=0;entryX=-0.004;entryY=0.556;entryDx=0;entryDy=0;entryPerimeter=0;" edge="1" parent="1" source="FS0p3moliFxc1-Q8TRuR-51" target="FS0p3moliFxc1-Q8TRuR-56">
          <mxGeometry width="50" height="50" relative="1" as="geometry">
            <mxPoint x="750" y="200" as="sourcePoint" />
            <mxPoint x="800" y="150" as="targetPoint" />
          </mxGeometry>
        </mxCell>
        <mxCell id="FS0p3moliFxc1-Q8TRuR-73" value="" style="endArrow=none;html=1;rounded=0;exitX=0.979;exitY=0.046;exitDx=0;exitDy=0;exitPerimeter=0;entryX=0;entryY=0.5;entryDx=0;entryDy=0;" edge="1" parent="1" source="FS0p3moliFxc1-Q8TRuR-51" target="FS0p3moliFxc1-Q8TRuR-57">
          <mxGeometry width="50" height="50" relative="1" as="geometry">
            <mxPoint x="830" y="155" as="sourcePoint" />
            <mxPoint x="880" y="105" as="targetPoint" />
          </mxGeometry>
        </mxCell>
        <mxCell id="FS0p3moliFxc1-Q8TRuR-74" value="" style="endArrow=none;html=1;rounded=0;entryX=1;entryY=0.5;entryDx=0;entryDy=0;exitX=0;exitY=0.5;exitDx=0;exitDy=0;" edge="1" parent="1" source="FS0p3moliFxc1-Q8TRuR-53" target="FS0p3moliFxc1-Q8TRuR-51">
          <mxGeometry width="50" height="50" relative="1" as="geometry">
            <mxPoint x="750" y="200" as="sourcePoint" />
            <mxPoint x="800" y="150" as="targetPoint" />
          </mxGeometry>
        </mxCell>
        <mxCell id="FS0p3moliFxc1-Q8TRuR-75" value="Business" style="rounded=1;whiteSpace=wrap;html=1;" vertex="1" parent="1">
          <mxGeometry x="670" y="420" width="120" height="60" as="geometry" />
        </mxCell>
        <mxCell id="FS0p3moliFxc1-Q8TRuR-76" value="id" style="ellipse;whiteSpace=wrap;html=1;fontStyle=4" vertex="1" parent="1">
          <mxGeometry x="616" y="412" width="34" height="15" as="geometry" />
        </mxCell>
        <mxCell id="FS0p3moliFxc1-Q8TRuR-82" value="numReviews" style="ellipse;whiteSpace=wrap;html=1;" vertex="1" parent="1">
          <mxGeometry x="808.75" y="437.5" width="86.25" height="25" as="geometry" />
        </mxCell>
        <mxCell id="FS0p3moliFxc1-Q8TRuR-83" value="stars" style="ellipse;whiteSpace=wrap;html=1;" vertex="1" parent="1">
          <mxGeometry x="815" y="409.5" width="40" height="20" as="geometry" />
        </mxCell>
        <mxCell id="FS0p3moliFxc1-Q8TRuR-58" value="vote" style="ellipse;whiteSpace=wrap;html=1;" vertex="1" parent="1">
          <mxGeometry x="765" y="105" width="50" height="30" as="geometry" />
        </mxCell>
        <mxCell id="FS0p3moliFxc1-Q8TRuR-61" value="notUseful" style="ellipse;whiteSpace=wrap;html=1;" vertex="1" parent="1">
          <mxGeometry x="815" y="64.17999999999999" width="80" height="32.18" as="geometry" />
        </mxCell>
        <mxCell id="FS0p3moliFxc1-Q8TRuR-60" value="useful" style="ellipse;whiteSpace=wrap;html=1;" vertex="1" parent="1">
          <mxGeometry x="690" y="67.36000000000001" width="64" height="25.82" as="geometry" />
        </mxCell>
        <mxCell id="5LiRAlSjJbCMQmVI5KmH-1" value="" style="endArrow=none;html=1;rounded=0;entryX=0;entryY=1;entryDx=0;entryDy=0;exitX=1;exitY=0;exitDx=0;exitDy=0;" edge="1" parent="1" source="FS0p3moliFxc1-Q8TRuR-58" target="FS0p3moliFxc1-Q8TRuR-61">
          <mxGeometry width="50" height="50" relative="1" as="geometry">
            <mxPoint x="810" y="200" as="sourcePoint" />
            <mxPoint x="860" y="150" as="targetPoint" />
          </mxGeometry>
        </mxCell>
        <mxCell id="5LiRAlSjJbCMQmVI5KmH-2" value="" style="endArrow=none;html=1;rounded=0;entryX=1;entryY=1;entryDx=0;entryDy=0;exitX=0;exitY=0;exitDx=0;exitDy=0;" edge="1" parent="1" source="FS0p3moliFxc1-Q8TRuR-58" target="FS0p3moliFxc1-Q8TRuR-60">
          <mxGeometry width="50" height="50" relative="1" as="geometry">
            <mxPoint x="810" y="200" as="sourcePoint" />
            <mxPoint x="860" y="150" as="targetPoint" />
          </mxGeometry>
        </mxCell>
        <mxCell id="5LiRAlSjJbCMQmVI5KmH-3" value="" style="endArrow=none;html=1;rounded=0;entryX=0.5;entryY=1;entryDx=0;entryDy=0;exitX=0.5;exitY=0;exitDx=0;exitDy=0;" edge="1" parent="1" source="FS0p3moliFxc1-Q8TRuR-51" target="FS0p3moliFxc1-Q8TRuR-58">
          <mxGeometry width="50" height="50" relative="1" as="geometry">
            <mxPoint x="810" y="200" as="sourcePoint" />
            <mxPoint x="860" y="150" as="targetPoint" />
          </mxGeometry>
        </mxCell>
        <mxCell id="FS0p3moliFxc1-Q8TRuR-5" value="firstName" style="ellipse;whiteSpace=wrap;html=1;" vertex="1" parent="1">
          <mxGeometry x="100" y="45" width="80" height="40" as="geometry" />
        </mxCell>
        <mxCell id="FS0p3moliFxc1-Q8TRuR-6" value="lastName" style="ellipse;whiteSpace=wrap;html=1;" vertex="1" parent="1">
          <mxGeometry x="55" y="98.75" width="80" height="40" as="geometry" />
        </mxCell>
        <mxCell id="5LiRAlSjJbCMQmVI5KmH-4" value="" style="endArrow=none;html=1;rounded=0;exitX=0.5;exitY=0;exitDx=0;exitDy=0;entryX=1;entryY=1;entryDx=0;entryDy=0;" edge="1" parent="1" source="FS0p3moliFxc1-Q8TRuR-15" target="FS0p3moliFxc1-Q8TRuR-5">
          <mxGeometry width="50" height="50" relative="1" as="geometry">
            <mxPoint x="150" y="110" as="sourcePoint" />
            <mxPoint x="200" y="60" as="targetPoint" />
          </mxGeometry>
        </mxCell>
        <mxCell id="5LiRAlSjJbCMQmVI5KmH-5" value="" style="endArrow=none;html=1;rounded=0;exitX=0;exitY=0.5;exitDx=0;exitDy=0;entryX=1;entryY=0.5;entryDx=0;entryDy=0;" edge="1" parent="1" source="FS0p3moliFxc1-Q8TRuR-15" target="FS0p3moliFxc1-Q8TRuR-6">
          <mxGeometry width="50" height="50" relative="1" as="geometry">
            <mxPoint x="150" y="110" as="sourcePoint" />
            <mxPoint x="200" y="60" as="targetPoint" />
          </mxGeometry>
        </mxCell>
        <mxCell id="FS0p3moliFxc1-Q8TRuR-19" value="birthInfo" style="ellipse;whiteSpace=wrap;html=1;" vertex="1" parent="1">
          <mxGeometry x="320" y="103.75" width="60" height="30" as="geometry" />
        </mxCell>
        <mxCell id="FS0p3moliFxc1-Q8TRuR-7" value="dateOfBirth" style="ellipse;whiteSpace=wrap;html=1;" vertex="1" parent="1">
          <mxGeometry x="390" y="36.36" width="70" height="31" as="geometry" />
        </mxCell>
        <mxCell id="FS0p3moliFxc1-Q8TRuR-8" value="birthPlace" style="ellipse;whiteSpace=wrap;html=1;" vertex="1" parent="1">
          <mxGeometry x="400" y="114" width="64" height="21" as="geometry" />
        </mxCell>
        <mxCell id="FS0p3moliFxc1-Q8TRuR-9" value="gender" style="ellipse;whiteSpace=wrap;html=1;" vertex="1" parent="1">
          <mxGeometry x="400" y="79" width="57" height="21" as="geometry" />
        </mxCell>
        <mxCell id="FS0p3moliFxc1-Q8TRuR-18" value="age" style="ellipse;whiteSpace=wrap;dashed=1;dashed-pattern=1;html=1;" vertex="1" parent="1">
          <mxGeometry x="348" y="50" width="32" height="17.36" as="geometry" />
        </mxCell>
        <mxCell id="5LiRAlSjJbCMQmVI5KmH-9" value="" style="endArrow=none;html=1;rounded=0;exitX=0.5;exitY=1;exitDx=0;exitDy=0;entryX=0.5;entryY=0;entryDx=0;entryDy=0;" edge="1" parent="1" source="FS0p3moliFxc1-Q8TRuR-18" target="FS0p3moliFxc1-Q8TRuR-19">
          <mxGeometry width="50" height="50" relative="1" as="geometry">
            <mxPoint x="550" y="180" as="sourcePoint" />
            <mxPoint x="600" y="130" as="targetPoint" />
          </mxGeometry>
        </mxCell>
        <mxCell id="5LiRAlSjJbCMQmVI5KmH-10" value="" style="endArrow=none;html=1;rounded=0;entryX=0;entryY=1;entryDx=0;entryDy=0;exitX=1;exitY=0;exitDx=0;exitDy=0;" edge="1" parent="1" source="FS0p3moliFxc1-Q8TRuR-19" target="FS0p3moliFxc1-Q8TRuR-7">
          <mxGeometry width="50" height="50" relative="1" as="geometry">
            <mxPoint x="340" y="140" as="sourcePoint" />
            <mxPoint x="390" y="90" as="targetPoint" />
          </mxGeometry>
        </mxCell>
        <mxCell id="5LiRAlSjJbCMQmVI5KmH-11" value="" style="endArrow=none;html=1;rounded=0;exitX=0;exitY=0.5;exitDx=0;exitDy=0;entryX=1;entryY=0.5;entryDx=0;entryDy=0;" edge="1" parent="1" source="FS0p3moliFxc1-Q8TRuR-8" target="FS0p3moliFxc1-Q8TRuR-19">
          <mxGeometry width="50" height="50" relative="1" as="geometry">
            <mxPoint x="340" y="140" as="sourcePoint" />
            <mxPoint x="390" y="90" as="targetPoint" />
          </mxGeometry>
        </mxCell>
        <mxCell id="5LiRAlSjJbCMQmVI5KmH-12" value="" style="endArrow=none;html=1;rounded=0;entryX=0;entryY=0.5;entryDx=0;entryDy=0;exitX=1;exitY=0.5;exitDx=0;exitDy=0;" edge="1" parent="1" source="FS0p3moliFxc1-Q8TRuR-19" target="FS0p3moliFxc1-Q8TRuR-9">
          <mxGeometry width="50" height="50" relative="1" as="geometry">
            <mxPoint x="390" y="110" as="sourcePoint" />
            <mxPoint x="390" y="90" as="targetPoint" />
          </mxGeometry>
        </mxCell>
        <mxCell id="5LiRAlSjJbCMQmVI5KmH-20" value="" style="group" connectable="0" vertex="1" parent="1">
          <mxGeometry x="616" y="290" width="260" height="100" as="geometry" />
        </mxCell>
        <mxCell id="FS0p3moliFxc1-Q8TRuR-77" value="address" style="ellipse;whiteSpace=wrap;html=1;" vertex="1" parent="5LiRAlSjJbCMQmVI5KmH-20">
          <mxGeometry x="80" y="70" width="67.5" height="30" as="geometry" />
        </mxCell>
        <mxCell id="FS0p3moliFxc1-Q8TRuR-78" value="street" style="ellipse;whiteSpace=wrap;html=1;" vertex="1" parent="5LiRAlSjJbCMQmVI5KmH-20">
          <mxGeometry x="88.75" y="20" width="50" height="30" as="geometry" />
        </mxCell>
        <mxCell id="FS0p3moliFxc1-Q8TRuR-79" value="zipcode" style="ellipse;whiteSpace=wrap;html=1;" vertex="1" parent="5LiRAlSjJbCMQmVI5KmH-20">
          <mxGeometry y="70" width="60" height="30" as="geometry" />
        </mxCell>
        <mxCell id="FS0p3moliFxc1-Q8TRuR-80" value="lattitude" style="ellipse;whiteSpace=wrap;html=1;" vertex="1" parent="5LiRAlSjJbCMQmVI5KmH-20">
          <mxGeometry x="20" y="30" width="60" height="30" as="geometry" />
        </mxCell>
        <mxCell id="FS0p3moliFxc1-Q8TRuR-81" value="longitude" style="ellipse;whiteSpace=wrap;html=1;" vertex="1" parent="5LiRAlSjJbCMQmVI5KmH-20">
          <mxGeometry x="160" y="30" width="60" height="30" as="geometry" />
        </mxCell>
        <mxCell id="5LiRAlSjJbCMQmVI5KmH-14" value="addressNumber" style="ellipse;whiteSpace=wrap;html=1;align=center;" vertex="1" parent="5LiRAlSjJbCMQmVI5KmH-20">
          <mxGeometry x="167.5" y="70" width="92.5" height="30" as="geometry" />
        </mxCell>
        <mxCell id="5LiRAlSjJbCMQmVI5KmH-18" value="" style="endArrow=none;html=1;rounded=0;entryX=0;entryY=0.5;entryDx=0;entryDy=0;exitX=1;exitY=0.5;exitDx=0;exitDy=0;" edge="1" parent="5LiRAlSjJbCMQmVI5KmH-20" source="FS0p3moliFxc1-Q8TRuR-79" target="FS0p3moliFxc1-Q8TRuR-77">
          <mxGeometry width="50" height="50" relative="1" as="geometry">
            <mxPoint x="70" y="80" as="sourcePoint" />
            <mxPoint x="120" y="30" as="targetPoint" />
          </mxGeometry>
        </mxCell>
        <mxCell id="5LiRAlSjJbCMQmVI5KmH-17" value="" style="endArrow=none;html=1;rounded=0;exitX=1;exitY=1;exitDx=0;exitDy=0;entryX=0;entryY=0;entryDx=0;entryDy=0;" edge="1" parent="5LiRAlSjJbCMQmVI5KmH-20" source="FS0p3moliFxc1-Q8TRuR-80" target="FS0p3moliFxc1-Q8TRuR-77">
          <mxGeometry width="50" height="50" relative="1" as="geometry">
            <mxPoint x="70" y="80" as="sourcePoint" />
            <mxPoint x="120" y="30" as="targetPoint" />
          </mxGeometry>
        </mxCell>
        <mxCell id="5LiRAlSjJbCMQmVI5KmH-15" value="" style="endArrow=none;html=1;rounded=0;exitX=0;exitY=1;exitDx=0;exitDy=0;entryX=1;entryY=0;entryDx=0;entryDy=0;" edge="1" parent="5LiRAlSjJbCMQmVI5KmH-20" source="FS0p3moliFxc1-Q8TRuR-81" target="FS0p3moliFxc1-Q8TRuR-77">
          <mxGeometry width="50" height="50" relative="1" as="geometry">
            <mxPoint x="70" y="80" as="sourcePoint" />
            <mxPoint x="120" y="30" as="targetPoint" />
          </mxGeometry>
        </mxCell>
        <mxCell id="5LiRAlSjJbCMQmVI5KmH-19" value="" style="endArrow=none;html=1;rounded=0;exitX=0;exitY=0.5;exitDx=0;exitDy=0;entryX=1;entryY=0.5;entryDx=0;entryDy=0;" edge="1" parent="5LiRAlSjJbCMQmVI5KmH-20" source="5LiRAlSjJbCMQmVI5KmH-14" target="FS0p3moliFxc1-Q8TRuR-77">
          <mxGeometry width="50" height="50" relative="1" as="geometry">
            <mxPoint x="70" y="80" as="sourcePoint" />
            <mxPoint x="120" y="30" as="targetPoint" />
          </mxGeometry>
        </mxCell>
        <mxCell id="5LiRAlSjJbCMQmVI5KmH-16" value="" style="endArrow=none;html=1;rounded=0;exitX=0.5;exitY=0;exitDx=0;exitDy=0;entryX=0.5;entryY=1;entryDx=0;entryDy=0;" edge="1" parent="5LiRAlSjJbCMQmVI5KmH-20" source="FS0p3moliFxc1-Q8TRuR-77" target="FS0p3moliFxc1-Q8TRuR-78">
          <mxGeometry width="50" height="50" relative="1" as="geometry">
            <mxPoint x="70" y="100" as="sourcePoint" />
            <mxPoint x="120" y="50" as="targetPoint" />
          </mxGeometry>
        </mxCell>
        <mxCell id="5LiRAlSjJbCMQmVI5KmH-21" value="" style="endArrow=none;html=1;rounded=0;exitX=0.5;exitY=0;exitDx=0;exitDy=0;entryX=0.5;entryY=1;entryDx=0;entryDy=0;" edge="1" parent="1" source="FS0p3moliFxc1-Q8TRuR-75" target="FS0p3moliFxc1-Q8TRuR-77">
          <mxGeometry width="50" height="50" relative="1" as="geometry">
            <mxPoint x="680" y="390" as="sourcePoint" />
            <mxPoint x="730" y="340" as="targetPoint" />
          </mxGeometry>
        </mxCell>
        <mxCell id="5LiRAlSjJbCMQmVI5KmH-22" value="" style="endArrow=none;html=1;rounded=0;entryX=0;entryY=0.5;entryDx=0;entryDy=0;exitX=1;exitY=0;exitDx=0;exitDy=0;" edge="1" parent="1" source="FS0p3moliFxc1-Q8TRuR-75" target="FS0p3moliFxc1-Q8TRuR-83">
          <mxGeometry width="50" height="50" relative="1" as="geometry">
            <mxPoint x="690" y="480" as="sourcePoint" />
            <mxPoint x="740" y="430" as="targetPoint" />
          </mxGeometry>
        </mxCell>
        <mxCell id="5LiRAlSjJbCMQmVI5KmH-23" value="" style="endArrow=none;html=1;rounded=0;entryX=0;entryY=0.5;entryDx=0;entryDy=0;exitX=1;exitY=0.5;exitDx=0;exitDy=0;" edge="1" parent="1" source="FS0p3moliFxc1-Q8TRuR-75" target="FS0p3moliFxc1-Q8TRuR-82">
          <mxGeometry relative="1" as="geometry">
            <mxPoint x="630" y="450" as="sourcePoint" />
            <mxPoint x="790" y="450" as="targetPoint" />
          </mxGeometry>
        </mxCell>
        <mxCell id="5LiRAlSjJbCMQmVI5KmH-24" value="" style="endArrow=none;html=1;rounded=0;exitX=1;exitY=0.5;exitDx=0;exitDy=0;entryX=0;entryY=0;entryDx=0;entryDy=0;" edge="1" parent="1" source="FS0p3moliFxc1-Q8TRuR-76" target="FS0p3moliFxc1-Q8TRuR-75">
          <mxGeometry relative="1" as="geometry">
            <mxPoint x="630" y="450" as="sourcePoint" />
            <mxPoint x="790" y="450" as="targetPoint" />
          </mxGeometry>
        </mxCell>
      </root>
    </mxGraphModel>
  </diagram>
</mxfile>
